<?xml version="1.0" standalone="no"?>
<!DOCTYPE svg PUBLIC "-//W3C//DTD SVG 20010904//EN"
 "http://www.w3.org/TR/2001/REC-SVG-20010904/DTD/svg10.dtd">
<svg version="1.0" xmlns="http://www.w3.org/2000/svg"
 width="256.000000pt" height="256.000000pt" viewBox="0 0 256.000000 256.000000"
 preserveAspectRatio="xMidYMid meet">
<metadata>
Created by potrace 1.11, written by Peter Selinger 2001-2013
</metadata>
<g transform="translate(0.000000,256.000000) scale(0.100000,-0.100000)"
fill="#000000" stroke="none">
<path d="M1145 2513 c-287 -36 -540 -158 -740 -358 -485 -486 -485 -1264 0
-1750 486 -485 1264 -485 1750 0 485 486 485 1264 0 1750 -237 236 -558 368
-885 363 -52 0 -108 -3 -125 -5z m-235 -739 c0 -6 -11 -19 -25 -28 -19 -13
-25 -25 -25 -54 0 -36 237 -742 249 -742 3 0 42 105 86 234 l80 234 -48 146
c-39 117 -54 150 -78 171 -17 14 -35 25 -40 25 -5 0 -9 6 -9 13 0 11 47 13
235 13 177 0 235 -3 235 -12 0 -7 -18 -15 -40 -19 -49 -8 -70 -27 -70 -63 0
-39 238 -749 245 -732 3 8 44 137 91 285 68 215 87 287 91 352 l6 82 -35 35
c-21 21 -49 37 -71 41 -20 4 -37 13 -37 20 0 11 35 13 165 12 91 -1 165 -6
165 -11 0 -5 -20 -26 -45 -48 -25 -22 -54 -57 -65 -78 -10 -20 -82 -241 -160
-491 -77 -250 -146 -469 -151 -486 -10 -32 -12 -33 -67 -33 l-57 0 -121 362
-120 362 -121 -359 -120 -360 -57 0 -58 0 -189 525 c-191 530 -209 569 -261
586 -10 3 -18 11 -18 18 0 10 48 13 220 12 159 0 220 -4 220 -12z"/>
</g>
</svg>
