<?xml version="1.0" standalone="no"?>
<!DOCTYPE svg PUBLIC "-//W3C//DTD SVG 20010904//EN"
 "http://www.w3.org/TR/2001/REC-SVG-20010904/DTD/svg10.dtd">
<svg version="1.0" xmlns="http://www.w3.org/2000/svg"
 width="520.000000pt" height="520.000000pt" viewBox="0 0 520.000000 520.000000"
 preserveAspectRatio="xMidYMid meet">
<metadata>
Created by potrace 1.11, written by Peter Selinger 2001-2013
</metadata>
<g transform="translate(0.000000,520.000000) scale(0.100000,-0.100000)"
fill="#000000" stroke="none">
<path d="M306 5189 c-62 -15 -153 -68 -197 -116 -22 -24 -55 -74 -72 -111
l-32 -67 0 -2295 0 -2295 32 -67 c44 -93 100 -151 191 -196 l76 -37 2296 0
2296 0 76 37 c91 45 147 103 191 196 l32 67 0 2296 0 2295 -38 76 c-56 115
-150 190 -269 218 -56 12 -4527 12 -4582 -1z m2978 -569 c125 -47 189 -189
188 -420 0 -194 -41 -378 -121 -546 -105 -220 -239 -372 -458 -517 l-93 -61 0
-188 c0 -142 3 -189 13 -192 6 -2 38 -8 69 -14 131 -25 269 -118 351 -239 69
-100 99 -194 105 -323 7 -181 -40 -318 -151 -436 -99 -107 -194 -164 -312
-188 l-60 -13 -2 -258 c-2 -282 -7 -322 -58 -430 -57 -120 -153 -193 -305
-231 -86 -22 -250 -14 -333 15 -145 51 -270 149 -322 251 -31 62 -41 147 -26
225 19 95 39 131 98 176 45 34 65 42 111 46 63 6 160 -14 233 -46 74 -33 120
-113 120 -211 1 -75 -24 -132 -78 -180 -51 -44 -94 -60 -168 -60 l-50 -1 30
-24 c58 -48 129 -67 240 -63 88 3 108 7 167 35 148 70 192 206 181 560 l-6
182 -46 6 c-237 30 -374 82 -536 202 -190 141 -279 287 -331 544 -29 145 3
375 74 531 30 66 124 198 195 275 69 75 258 210 454 324 l184 108 4 173 c4
201 22 323 70 465 63 189 143 322 258 429 117 110 200 135 311 94z"/>
<path d="M3094 4226 c-86 -40 -179 -153 -223 -270 -34 -91 -76 -416 -53 -416
6 0 56 34 112 75 233 174 360 356 360 516 0 54 -3 64 -29 90 -38 37 -94 39
-167 5z"/>
<path d="M2512 2950 c-242 -128 -442 -290 -521 -423 -67 -113 -85 -172 -89
-287 -3 -86 0 -116 16 -161 29 -84 113 -201 185 -259 136 -109 388 -210 524
-210 l23 0 0 386 0 386 -32 -7 c-52 -11 -151 -59 -190 -94 -74 -65 -98 -170
-62 -275 15 -45 63 -103 122 -148 32 -25 29 -66 -5 -74 -71 -18 -235 120 -296
247 -89 186 -66 325 76 472 100 103 200 158 350 191 l27 6 0 118 c0 64 3 134
6 155 5 28 3 37 -7 37 -8 0 -65 -27 -127 -60z"/>
<path d="M2755 1977 c4 -227 8 -413 8 -414 1 -1 24 3 50 8 79 14 163 58 208
106 50 55 108 173 115 239 12 102 -37 251 -111 332 -65 73 -124 105 -244 133
l-34 8 8 -412z"/>
</g>
</svg>
