<?xml version="1.0" encoding="utf-8"?>
<!-- Generator: Adobe Illustrator 23.0.0, SVG Export Plug-In . SVG Version: 6.00 Build 0)  -->
<svg version="1.1"
	 id="svg2" xmlns:cc="http://creativecommons.org/ns#" xmlns:dc="http://purl.org/dc/elements/1.1/" xmlns:inkscape="http://www.inkscape.org/namespaces/inkscape" xmlns:rdf="http://www.w3.org/1999/02/22-rdf-syntax-ns#" xmlns:sodipodi="http://sodipodi.sourceforge.net/DTD/sodipodi-0.dtd" xmlns:svg="http://www.w3.org/2000/svg"
	 xmlns="http://www.w3.org/2000/svg" xmlns:xlink="http://www.w3.org/1999/xlink" x="0px" y="0px" viewBox="0 0 32 32"
	 style="enable-background:new 0 0 32 32;" xml:space="preserve">
<style type="text/css">
	.st0{fill:none;}
	.st1{fill:#FFFFFF;}
</style>
<g id="background">
	<rect class="st0" width="32" height="32"/>
</g>
<g id="news_1_">
	<path class="st1" d="M4,8h20V6H4V8z M15,20h7v-2h-7V20z M15,16h9v-2h-9V16z M15,12h9v-2h-9V12z M4,20h9V10H4V20z M28,4V0H0v22
		c0,0,0,4,4,4h25c0,0,3-0.1,3-4V4H28z M4,24c-2,0-2-2-2-2V2h24v20c0,0.9,0.3,1.6,0.7,2H4z"/>
</g>
</svg>
