<svg id="svg2" xmlns="http://www.w3.org/2000/svg" width="154" height="43" viewBox="0 0 154 43"><defs><style>.cls-1{fill:#fff;}.cls-2{fill:#7f7f7f;}.cls-3{fill:#000003;}</style></defs><title>news-sprite</title><g id="news"><path class="cls-1" d="M109.25,13.5H140.5V10.38H109.25Zm17.19,18.75h10.94V29.13H126.44Zm0-6.25H140.5V22.88H126.44Zm0-6.25H140.5V16.63H126.44Zm-17.19,12.5h14.06V16.63H109.25Zm37.5-25V1H103V35.38s0,6.25,6.25,6.25h39.06s4.69-.1,4.69-6.25V7.25ZM109.25,38.5a3.06,3.06,0,0,1-3.12-3.12V4.13h37.5V35.38a4.53,4.53,0,0,0,1.05,3.12Z"/></g><g id="news-2" data-name="news"><path class="cls-2" d="M58.25,13.5H89.5V10.38H58.25ZM75.44,32.25H86.38V29.13H75.44Zm0-6.25H89.5V22.88H75.44Zm0-6.25H89.5V16.63H75.44ZM58.25,32.25H72.31V16.63H58.25Zm37.5-25V1H52V35.38s0,6.25,6.25,6.25H97.31s4.69-.1,4.69-6.25V7.25ZM58.25,38.5a3.06,3.06,0,0,1-3.12-3.12V4.13h37.5V35.38a4.53,4.53,0,0,0,1.05,3.12Z"/></g><g id="news-3" data-name="news"><path class="cls-3" d="M7.25,13.5H38.5V10.38H7.25ZM24.44,32.25H35.38V29.13H24.44Zm0-6.25H38.5V22.88H24.44Zm0-6.25H38.5V16.63H24.44ZM7.25,32.25H21.31V16.63H7.25Zm37.5-25V1H1V35.38s0,6.25,6.25,6.25H46.31S51,41.53,51,35.38V7.25ZM7.25,38.5a3.06,3.06,0,0,1-3.12-3.12V4.13h37.5V35.38a4.53,4.53,0,0,0,1,3.12Z"/></g></svg>